<svg xmlns="http://www.w3.org/2000/svg" xmlns:xlink="http://www.w3.org/1999/xlink" width="150" height="47.953" viewBox="0 0 150 47.953">
  <defs>
    <clipPath id="clip-path">
      <rect id="Ret창ngulo_4" data-name="Ret창ngulo 4" width="150" height="47.953" fill="none"/>
    </clipPath>
  </defs>
  <g id="logo-1" clip-path="url(#clip-path)">
    <path id="Caminho_1" data-name="Caminho 1" d="M54.761,145.741a16.529,16.529,0,0,0-11.681-4.778,15.676,15.676,0,0,0-4.633.7,16.913,16.913,0,0,0-4.168,1.937,17.834,17.834,0,0,0-3.459,2.9q-.556.6-1.044,1.252-.475-.64-1.015-1.239a17.542,17.542,0,0,0-3.4-2.911,16.277,16.277,0,0,0-8.9-2.639,15.854,15.854,0,0,0-6.343,1.291,17.328,17.328,0,0,0-5.2,3.47,16.318,16.318,0,0,0-3.592,5.234A16.1,16.1,0,0,0,0,157.422v13.311a3.148,3.148,0,0,0,6.3,0V157.422a9.688,9.688,0,0,1,.806-3.915,10.331,10.331,0,0,1,5.441-5.441,9.909,9.909,0,0,1,7.83,0,10.333,10.333,0,0,1,5.442,5.441,9.705,9.705,0,0,1,.806,3.916v13.311a3.148,3.148,0,0,0,6.3,0V157.422a9.688,9.688,0,0,1,.806-3.915,10.332,10.332,0,0,1,5.441-5.441,9.909,9.909,0,0,1,7.83,0,10.334,10.334,0,0,1,5.442,5.441,9.705,9.705,0,0,1,.806,3.916v13.311a3.148,3.148,0,1,0,6.3,0V157.422a16.529,16.529,0,0,0-4.778-11.681" transform="translate(0 -126.551)" fill="#fff"/>
    <path id="Caminho_2" data-name="Caminho 2" d="M645.408,145.724a17.328,17.328,0,0,0-5.2-3.469,15.855,15.855,0,0,0-6.343-1.291,16.459,16.459,0,1,0,0,32.918,15.849,15.849,0,0,0,6.343-1.291,17.308,17.308,0,0,0,5.2-3.469,16.4,16.4,0,0,0,3.59-5.2,16.534,16.534,0,0,0,0-12.962,16.336,16.336,0,0,0-3.592-5.235m-11.545,21.861a9.682,9.682,0,0,1-3.915-.806,10.333,10.333,0,0,1-5.441-5.442,9.909,9.909,0,0,1,0-7.83,10.331,10.331,0,0,1,5.441-5.441,9.909,9.909,0,0,1,7.83,0,10.33,10.33,0,0,1,5.442,5.441,9.907,9.907,0,0,1,0,7.83,10.333,10.333,0,0,1-5.442,5.442,9.689,9.689,0,0,1-3.915.806" transform="translate(-554.281 -126.551)" fill="#b2cd01"/>
    <path id="Caminho_3" data-name="Caminho 3" d="M1176.774,150.958a16.334,16.334,0,0,0-3.592-5.235,17.328,17.328,0,0,0-5.2-3.469,15.854,15.854,0,0,0-6.343-1.291,16.459,16.459,0,1,0,0,32.918,15.848,15.848,0,0,0,6.343-1.291,17.307,17.307,0,0,0,5.2-3.469,16.4,16.4,0,0,0,3.589-5.2,16.533,16.533,0,0,0,0-12.962m-15.137,16.627a9.682,9.682,0,0,1-3.915-.806,10.334,10.334,0,0,1-5.441-5.442,9.911,9.911,0,0,1,0-7.83,10.333,10.333,0,0,1,5.441-5.441,9.909,9.909,0,0,1,7.83,0,10.33,10.33,0,0,1,5.442,5.441,9.908,9.908,0,0,1,0,7.83,10.333,10.333,0,0,1-5.442,5.442,9.689,9.689,0,0,1-3.915.806" transform="translate(-1028.096 -126.551)" fill="#b2cd01"/>
    <path id="Caminho_4" data-name="Caminho 4" d="M934.622,136.191a2.877,2.877,0,0,0-2.872,2.872V158.32a6.13,6.13,0,0,1-6.1,6.1,6.2,6.2,0,0,1-4.219-1.681,19.917,19.917,0,0,1-3.456,4.605,11.741,11.741,0,0,0,7.675,2.879,11.922,11.922,0,0,0,11.9-11.783V139.063a2.89,2.89,0,0,0-2.931-2.872" transform="translate(-824.125 -122.267)" fill="#b2cd01"/>
    <path id="Caminho_5" data-name="Caminho 5" d="M3.784,22.111h.524l3.807,8.317H7.567L4.033,22.635.547,30.428H0ZM1.475,27.584H6.591v.44H1.475Z" transform="translate(0 -19.85)" fill="#fff"/>
    <path id="Caminho_6" data-name="Caminho 6" d="M103.542,22.969a3.654,3.654,0,0,0-1.2-.738,3.982,3.982,0,0,0-1.434-.262,3.823,3.823,0,0,0-3.522,2.3,3.6,3.6,0,0,0-.3,1.463,3.644,3.644,0,0,0,.3,1.469,3.874,3.874,0,0,0,.821,1.208,3.794,3.794,0,0,0,2.7,1.106,3.821,3.821,0,0,0,1.416-.268,4.156,4.156,0,0,0,1.2-.72l.309.333a4.4,4.4,0,0,1-.857.583,4.454,4.454,0,0,1-1.005.381,4.523,4.523,0,0,1-1.089.131,4.243,4.243,0,0,1-1.66-.327,4.348,4.348,0,0,1-1.374-.91,4.227,4.227,0,0,1-.928-1.35,4.063,4.063,0,0,1-.333-1.636,3.962,3.962,0,0,1,.339-1.63A4.364,4.364,0,0,1,102,21.666a5,5,0,0,1,.993.375,3.651,3.651,0,0,1,.851.595Zm-.155,2.855h.452v3.034h-.452Z" transform="translate(-86.718 -19.328)" fill="#fff"/>
    <path id="Caminho_7" data-name="Caminho 7" d="M196.675,2.261h5.366v.452h-4.866V6.092h4.331v.452h-4.331v3.581h5.033v.452h-5.533ZM199.126,0h.595l1.19,1.38h-.535L199.281.214h.285L198.472,1.38h-.535Z" transform="translate(-176.567)" fill="#fff"/>
    <path id="Caminho_8" data-name="Caminho 8" d="M280,22.111h.583l5.675,7.817-.119.036V22.111h.488v8.317h-.583l-5.675-7.817.131-.036v7.853H280Z" transform="translate(-251.371 -19.851)" fill="#fff"/>
    <path id="Caminho_9" data-name="Caminho 9" d="M380.952,22.992a3.866,3.866,0,0,0-4.093-.732,3.824,3.824,0,0,0-2.035,2.011,3.75,3.75,0,0,0,0,2.927,3.823,3.823,0,0,0,2.035,2.011,3.84,3.84,0,0,0,2.891.018,4.121,4.121,0,0,0,1.2-.738l.309.309a4.218,4.218,0,0,1-.857.619,4.3,4.3,0,0,1-6.044-2.052,4.168,4.168,0,0,1,0-3.266,4.18,4.18,0,0,1,.928-1.339,4.406,4.406,0,0,1,1.374-.9,4.246,4.246,0,0,1,1.66-.327,4.346,4.346,0,0,1,1.089.137,4.42,4.42,0,0,1,.993.387,4,4,0,0,1,.845.607Z" transform="translate(-335.787 -19.328)" fill="#fff"/>
    <rect id="Ret창ngulo_3" data-name="Ret창ngulo 3" width="0.5" height="8.317" transform="translate(48.461 2.261)" fill="#fff"/>
    <path id="Caminho_10" data-name="Caminho 10" d="M506.772,22.111h.523l3.807,8.317h-.547l-3.534-7.793-3.486,7.793h-.547Zm-2.308,5.473h5.116v.44h-5.116Z" transform="translate(-451.563 -19.85)" fill="#fff"/>
  </g>
</svg>
